<?xml version="1.0" encoding="UTF-8"?>
<svg version="1.1" xmlns="http://www.w3.org/2000/svg" width="192" height="192">
<path d="M0 0 C0.79196777 0.00757324 1.58393555 0.01514648 2.39990234 0.02294922 C8.37564343 0.19164416 13.01960338 1.07207419 18.0625 4.4375 C18.75472656 4.86160156 19.44695312 5.28570312 20.16015625 5.72265625 C28.18723155 11.10904883 32.42011849 18.43443639 34.59375 27.75 C36.0880784 36.31748284 35.12862475 44.98342763 30.80859375 52.66796875 C24.73943555 61.21770932 17.41936357 67.16404214 7.0625 69.4375 C-3.3113519 70.83937188 -12.00146343 68.90143466 -20.9375 63.4375 C-29.01139998 56.73420501 -33.14282645 48.6571688 -34.9375 38.4375 C-35.74678864 28.32139198 -32.40715494 19.13076359 -25.9375 11.4375 C-18.24102604 3.29919142 -11.19423636 -0.15033828 0 0 Z " fill="#FBD463" transform="translate(125.9375,86.5625)"/>
<path d="M0 0 C1.09211288 -0.00708481 2.18422577 -0.01416962 3.30943298 -0.02146912 C4.50279266 -0.0189917 5.69615234 -0.01651428 6.92567444 -0.01396179 C8.18619125 -0.01907272 9.44670807 -0.02418365 10.74542236 -0.02944946 C14.19998602 -0.04283449 17.65444023 -0.04341871 21.10902476 -0.04088616 C23.99422923 -0.03981612 26.87941158 -0.04470067 29.7646113 -0.04949158 C36.57189658 -0.06058504 43.37912668 -0.06102509 50.18641663 -0.05497742 C57.2062829 -0.04893674 64.2259488 -0.06125127 71.24578089 -0.08254749 C77.27562676 -0.10016694 83.30540886 -0.10616431 89.33527952 -0.10290974 C92.93539698 -0.10109729 96.53537149 -0.10372915 100.13546562 -0.11762428 C104.15030287 -0.13254051 108.16473256 -0.12322956 112.17958069 -0.11161804 C113.37091614 -0.11926178 114.56225159 -0.12690552 115.78968811 -0.13478088 C116.88462082 -0.12776657 117.97955353 -0.12075226 119.10766602 -0.11352539 C120.05652648 -0.11369313 121.00538694 -0.11386087 121.98300076 -0.1140337 C126.03321738 0.46210579 128.69825815 2.21033449 131.36732483 5.26069641 C133.88606439 9.29067971 133.77799974 13.11355212 133.78529358 17.70210266 C133.78862198 18.42558395 133.79195038 19.14906525 133.79537964 19.89447021 C133.80043656 21.42173121 133.80278835 22.94900322 133.80262756 24.47627258 C133.80481997 26.81800855 133.82300431 29.15927778 133.8419342 31.50093079 C133.84486715 32.98465313 133.84685261 34.46837772 133.84779358 35.95210266 C133.8549791 36.65420364 133.86216461 37.35630463 133.86956787 38.0796814 C133.84615846 43.03186278 133.84615846 43.03186278 131.61732483 45.26069641 C129.11732483 45.51069641 129.11732483 45.51069641 126.61732483 45.26069641 C124.61732483 43.26069641 124.61732483 43.26069641 124.39027405 39.91255188 C124.39059108 38.48429008 124.40191122 37.05600429 124.42201233 35.62788391 C124.42484222 34.87604828 124.42767212 34.12421265 124.43058777 33.34959412 C124.44179609 30.94480063 124.46690131 28.5403776 124.49232483 26.13569641 C124.50235381 24.50679553 124.5114798 22.87788883 124.51966858 21.24897766 C124.54173748 17.25274085 124.57627132 13.25678147 124.61732483 9.26069641 C107.94547031 9.23736759 91.27362107 9.21971732 74.60175419 9.20888424 C66.86125201 9.20372124 59.12075996 9.19667848 51.38026428 9.18525696 C44.63605332 9.17531022 37.89184968 9.16884301 31.14763159 9.16660792 C27.57445617 9.16530079 24.00130173 9.16221483 20.42813301 9.15496635 C16.44570132 9.1469527 12.46329042 9.14670527 8.48085022 9.14717102 C7.28755096 9.14357574 6.09425171 9.13998047 4.86479187 9.13627625 C3.2472123 9.13833824 3.2472123 9.13833824 1.59695435 9.14044189 C0.18246301 9.13905921 0.18246301 9.13905921 -1.2606039 9.13764858 C-3.36747361 9.02383206 -3.36747361 9.02383206 -4.38267517 10.26069641 C-4.47878936 11.91827261 -4.50455272 13.57996628 -4.50292969 15.24032593 C-4.50430435 16.31871231 -4.50567902 17.39709869 -4.50709534 18.50816345 C-4.50350006 19.70146271 -4.49990479 20.89476196 -4.49620056 22.1242218 C-4.49634659 23.37282486 -4.49649261 24.62142792 -4.49664307 25.90786743 C-4.49606408 29.34160635 -4.49103472 32.77528579 -4.48406911 36.20901418 C-4.47783515 39.793821 -4.47723174 43.37862854 -4.4760437 46.96343994 C-4.47293051 53.75619686 -4.46471729 60.54893777 -4.45469421 67.34168762 C-4.4435327 75.07312135 -4.43802253 82.80455583 -4.43299878 90.5359956 C-4.42253466 106.44423849 -4.40493546 122.35246539 -4.38267517 138.26069641 C-3.75849197 138.27100388 -3.13430878 138.28131134 -2.49121094 138.29193115 C3.98087035 138.39976175 10.45280576 138.51437788 16.92469788 138.63301086 C19.34296122 138.67643519 21.76125673 138.71810453 24.17958069 138.75801086 C27.64720879 138.81553244 31.11467386 138.87927828 34.58216858 138.94429016 C35.67069626 138.96100266 36.75922394 138.97771515 37.8807373 138.99493408 C38.88169937 139.0148793 39.88266144 139.03482452 40.91395569 139.05537415 C41.79997971 139.07091843 42.68600372 139.08646271 43.59887695 139.10247803 C45.61732483 139.26069641 45.61732483 139.26069641 46.61732483 140.26069641 C46.65796315 141.92686756 46.66004583 143.59457736 46.61732483 145.26069641 C44.18499298 146.47686234 42.59828782 146.40046221 39.879776 146.42182922 C38.40265388 146.43624054 38.40265388 146.43624054 36.89569092 146.45094299 C35.8280098 146.45519287 34.76032867 146.45944275 33.66029358 146.46382141 C32.5651796 146.46952148 31.47006561 146.47522156 30.34176636 146.48109436 C28.02078724 146.49055354 25.69979464 146.49708197 23.37879944 146.50093079 C19.82981362 146.51062813 16.2814088 146.54164012 12.7325592 146.57319641 C10.47930744 146.57972714 8.22605153 146.58497734 5.97279358 146.58882141 C4.91118515 146.60116821 3.84957672 146.61351501 2.75579834 146.62623596 C-6.5661477 146.5980968 -6.5661477 146.5980968 -10.38267517 143.26069641 C-13.25170459 140.09111118 -13.75964984 138.04580247 -13.77035522 133.80209351 C-13.78025986 132.69315231 -13.79016449 131.58421112 -13.80036926 130.44166565 C-13.79586761 129.22960449 -13.79136597 128.01754333 -13.78672791 126.76875305 C-13.79359116 125.4887291 -13.80045441 124.20870514 -13.80752563 122.88989258 C-13.82546953 119.38156854 -13.8242864 115.87349444 -13.81858325 112.36513829 C-13.81549301 109.43518855 -13.82158203 106.50528693 -13.827622 103.57534403 C-13.84166977 96.66255945 -13.84010401 89.74989845 -13.82872009 82.83711243 C-13.81723947 75.70811926 -13.83131273 68.57950231 -13.85811657 61.45055872 C-13.88027632 55.32728142 -13.88691033 49.20412218 -13.88104016 43.08080763 C-13.87766988 39.42476261 -13.88008999 35.76895873 -13.89729118 32.11294746 C-13.91563679 28.03573422 -13.90157058 23.95925253 -13.88438416 19.8820343 C-13.89405212 18.67199738 -13.90372009 17.46196045 -13.91368103 16.21525574 C-13.84168425 8.07593363 -13.84168425 8.07593363 -11.60131836 4.09686279 C-7.75093747 0.91025758 -4.9997965 0.01082141 0 0 Z " fill="#B873F6" transform="translate(19.382675170898438,13.739303588867188)"/>
<path d="M0 0 C3.79589844 0.75390625 3.79589844 0.75390625 5.6328125 2.96875 C11.69673299 13.25519105 13.60656772 22.84423611 10.875 34.5625 C8.27829493 43.22220947 2.4039353 49.91381836 -5 55 C-13.63250871 59.63775032 -23.6586647 60.8459094 -33.11328125 58.09375 C-35.47500927 57.15841217 -37.74374522 56.1645186 -40 55 C-40 53.68 -40 52.36 -40 51 C-39.11699219 50.731875 -38.23398438 50.46375 -37.32421875 50.1875 C-23.51362796 45.67791933 -13.0916457 38.53289001 -5.8125 25.75 C-1.87357238 17.64470012 -1.0554589 8.85104127 0 0 Z " fill="#F4C25A" transform="translate(149,97)"/>
<path d="M0 0 C0.80355927 -0.00511093 1.60711853 -0.01022186 2.43502808 -0.01548767 C5.09421209 -0.02940023 7.75313741 -0.02842566 10.41235352 -0.02612305 C12.25936479 -0.03000908 14.10637518 -0.03434355 15.9533844 -0.03910828 C19.8262115 -0.04657407 23.69894746 -0.04627662 27.57177734 -0.04101562 C32.53636387 -0.03522063 37.50057736 -0.05215095 42.4651022 -0.0753603 C46.28007695 -0.09008751 50.09496165 -0.09097072 53.90995979 -0.08785057 C55.74040529 -0.0883643 57.57085576 -0.09361164 59.40127373 -0.10366249 C61.96047117 -0.11599 64.51893936 -0.10925764 67.078125 -0.09765625 C67.83514206 -0.10529999 68.59215912 -0.11294373 69.37211609 -0.12081909 C73.55990028 -0.07882791 76.06835727 0.28314894 79.10375977 3.2746582 C78.22875977 10.1496582 78.22875977 10.1496582 77.10375977 11.2746582 C74.3953789 11.36980412 71.71257463 11.40020753 69.00390625 11.38818359 C68.15519958 11.38832962 67.30649292 11.38847565 66.43206787 11.3886261 C63.61297086 11.38792669 60.79393906 11.38013298 57.97485352 11.37231445 C56.0257216 11.37045037 54.07658922 11.36902642 52.12745667 11.36802673 C46.98669145 11.36420075 41.84595429 11.35436979 36.7052002 11.34332275 C31.46370829 11.33311035 26.22221187 11.32852948 20.98071289 11.32348633 C10.68838282 11.31274759 0.39607362 11.29567022 -9.89624023 11.2746582 C-11.91967773 7.6027832 -11.91967773 7.6027832 -11.70874023 4.6496582 C-9.82877033 -0.84563845 -4.87532723 -0.01591247 0 0 Z " fill="#B874F8" transform="translate(37.896240234375,36.725341796875)"/>
<path d="M0 0 C1.21157021 -0.01429802 1.21157021 -0.01429802 2.44761658 -0.02888489 C3.31640945 -0.02797348 4.18520233 -0.02706207 5.08032227 -0.02612305 C5.97662857 -0.03040817 6.87293488 -0.0346933 7.79640198 -0.03910828 C9.69189611 -0.04485079 11.58741228 -0.04535241 13.48291016 -0.04101562 C16.38230013 -0.03785751 19.28066798 -0.06130906 22.17993164 -0.08666992 C24.02172723 -0.08894311 25.86352556 -0.08964632 27.70532227 -0.08862305 C28.57209091 -0.09783279 29.43885956 -0.10704254 30.33189392 -0.11653137 C33.90055362 -0.08911816 36.31298249 -0.06358656 39.51025391 1.60986328 C40.95922852 3.2746582 40.95922852 3.2746582 41.39672852 6.2746582 C40.91138148 9.60275218 40.5433832 10.2775018 37.95922852 12.2746582 C36.03089905 12.66233826 36.03089905 12.66233826 33.82666016 12.67871094 C32.99892593 12.69139511 32.17119171 12.70407928 31.31837463 12.71714783 C30.42770798 12.71421219 29.53704132 12.71127655 28.61938477 12.70825195 C27.70088242 12.7134938 26.78238007 12.71873566 25.83604431 12.72413635 C23.89347342 12.7305598 21.95086364 12.72921539 20.00830078 12.72070312 C17.03615992 12.71219949 14.06594472 12.74093926 11.09399414 12.77270508 C9.20662493 12.77431733 7.31925231 12.7737391 5.43188477 12.77075195 C4.54324234 12.78198593 3.65459991 12.79321991 2.73902893 12.80479431 C-3.38891898 12.73560798 -3.38891898 12.73560798 -6.63671875 10.43896484 C-8.04077148 8.2746582 -8.04077148 8.2746582 -7.97827148 5.1496582 C-6.55829462 0.79506248 -4.26518722 0.02769229 0 0 Z " fill="#B873F6" transform="translate(34.040771484375,62.725341796875)"/>
<path d="M0 0 C0.68429077 -0.00095673 1.36858154 -0.00191345 2.0736084 -0.00289917 C3.52286877 -0.0035808 4.97213218 -0.00172773 6.42138672 0.00244141 C8.64687928 0.00778998 10.87217001 0.0024959 13.09765625 -0.00390625 C14.50260461 -0.00324547 15.90755285 -0.0019643 17.3125 0 C18.59962891 0.00112793 19.88675781 0.00225586 21.21289062 0.00341797 C24.15625 0.1328125 24.15625 0.1328125 25.15625 1.1328125 C25.52711093 6.9738721 25.52711093 6.9738721 25.15625 9.1328125 C20.19586994 12.43973254 14.546585 11.50177642 8.71875 11.5078125 C7.47802734 11.53230469 6.23730469 11.55679688 4.95898438 11.58203125 C3.17137695 11.58783203 3.17137695 11.58783203 1.34765625 11.59375 C0.25654541 11.60196777 -0.83456543 11.61018555 -1.95874023 11.61865234 C-5.51423457 11.01990192 -6.72252122 10.0079038 -8.84375 7.1328125 C-8.41345519 -0.1821993 -6.88008442 0.00602912 0 0 Z " fill="#B972F8" transform="translate(34.84375,89.8671875)"/>
<path d="M0 0 C1.15822266 -0.03738281 2.31644531 -0.07476562 3.50976562 -0.11328125 C4.61900391 -0.12488281 5.72824219 -0.13648437 6.87109375 -0.1484375 C7.89001709 -0.16825684 8.90894043 -0.18807617 9.95874023 -0.20849609 C12.5625 0.375 12.5625 0.375 14.54321289 2.59521484 C15.5625 5.375 15.5625 5.375 14.75 8.1875 C14.358125 8.909375 13.96625 9.63125 13.5625 10.375 C9.10428834 10.46174429 4.64629196 10.51530513 0.1875 10.5625 C-1.08351563 10.58763672 -2.35453125 10.61277344 -3.6640625 10.63867188 C-4.87578125 10.64833984 -6.0875 10.65800781 -7.3359375 10.66796875 C-8.45661621 10.6836792 -9.57729492 10.69938965 -10.73193359 10.71557617 C-11.62477051 10.60318604 -12.51760742 10.4907959 -13.4375 10.375 C-15.4375 7.375 -15.4375 7.375 -15.1875 4.25 C-14.81625 2.826875 -14.81625 2.826875 -14.4375 1.375 C-10.19370557 -0.74689721 -4.66281745 0.05689517 0 0 Z " fill="#BB71FC" transform="translate(41.4375,115.625)"/>
<path d="M0 0 C2.5 0.9375 2.5 0.9375 4.4375 2.8125 C6.11175215 7.73677104 5.14048397 12.07570205 3.5 16.9375 C1.25 19.75 1.25 19.75 -1.5 20.9375 C-6.57317073 19.86432927 -6.57317073 19.86432927 -8.5 17.9375 C-9.17540268 11.88485288 -8.43150772 7.25764364 -5.5 1.9375 C-2.5 -0.0625 -2.5 -0.0625 0 0 Z " fill="#F1C061" transform="translate(116.5,159.0625)"/>
<path d="M0 0 C3.23432872 3.14191932 5.37372956 6.80593413 7 11 C6.78483954 14.72944805 6.66053508 16.33946492 4 19 C0.75 19.1875 0.75 19.1875 -3 18 C-6.50652298 14.34832683 -8.7289259 10.62644459 -9.5625 5.625 C-9 3 -9 3 -7.875 1.125 C-5.04245644 -0.57452613 -3.23653093 -0.52841321 0 0 Z " fill="#F1C25F" transform="translate(153,154)"/>
<path d="M0 0 C0.99 0.66 1.98 1.32 3 2 C3.98505338 6.9252669 3.98505338 6.9252669 3 10 C-0.69698099 13.88468643 -4.63793057 15.75834252 -9.875 16.6875 C-13 16 -13 16 -15.0625 13.875 C-16 11 -16 11 -15.75 8 C-12.50541558 2.43785528 -6.45878681 -0.69539956 0 0 Z " fill="#F3C15C" transform="translate(90,139)"/>
<path d="M0 0 C2 3 2 3 2.1875 5.8125 C0.36943802 10.6925611 -3.48297005 12.66936438 -8 15 C-11.02530894 16.04743661 -11.65869065 16.13186952 -14.75 14.9375 C-17 13 -17 13 -17.625 10.125 C-16.62601407 5.13007035 -13.47395817 3.16365119 -9.625 0.125 C-6.03164301 -1.41501014 -3.73396542 -0.98633049 0 0 Z " fill="#F2C35C" transform="translate(176,88)"/>
<path d="M0 0 C1.14726563 0.25007813 2.29453125 0.50015625 3.4765625 0.7578125 C6.375 1.875 6.375 1.875 7.78515625 3.796875 C8.63446362 6.78913671 8.21338773 8.90839726 7.375 11.875 C3.95142802 14.15738132 2.47172312 13.98447765 -1.48828125 13.34765625 C-4.93590542 12.58501909 -7.53391603 11.6413337 -10.625 9.875 C-11.71987933 7.20623162 -11.68070932 5.52494206 -11.4375 2.6875 C-10.625 0.875 -10.625 0.875 -8.98828125 -0.30859375 C-5.65778249 -1.45912969 -3.40653743 -0.79203918 0 0 Z " fill="#F3C15C" transform="translate(79.625,103.125)"/>
<path d="M0 0 C4.94316277 1.84157044 7.00344321 5.51060598 9.1875 10.1875 C9.6875 14.125 9.6875 14.125 9.1875 17.1875 C7.1875 19.1875 7.1875 19.1875 3.75 19.5 C0.1875 19.1875 0.1875 19.1875 -1.39453125 17.90625 C-4.65692387 13.9518347 -6.8458876 9.9904304 -6.75 4.8125 C-5.43155065 1.12084181 -3.86374156 0.25758277 0 0 Z " fill="#F3C55D" transform="translate(98.8125,68.8125)"/>
<path d="M0 0 C3.3125 0.875 3.3125 0.875 4.3125 1.875 C4.95199028 8.29449861 4.33713481 13.18868655 1.3125 18.875 C0.3125 19.875 0.3125 19.875 -2.5625 20.125 C-5.6875 19.875 -5.6875 19.875 -7.38671875 18.7265625 C-9.75847307 15.35055185 -8.70515573 11.69608927 -8.25390625 7.77734375 C-7.17630115 2.25554657 -5.82805716 -0.19756126 0 0 Z " fill="#F3C35D" transform="translate(139.6875,63.125)"/>
<path d="M0 0 C4.59866797 0.36497365 8.74720325 1.35223242 12.9375 3.3125 C14.35191874 6.14133747 14.25650332 8.18626745 13.9375 11.3125 C12.296875 13.046875 12.296875 13.046875 9.9375 14.3125 C7.02734375 14.23828125 7.02734375 14.23828125 3.875 13.625 C2.31072266 13.34076172 2.31072266 13.34076172 0.71484375 13.05078125 C-2.0625 12.3125 -2.0625 12.3125 -5.0625 10.3125 C-5.42578125 8.4375 -5.42578125 8.4375 -5.375 6.3125 C-5.36919922 5.260625 -5.36919922 5.260625 -5.36328125 4.1875 C-4.80470271 0.70545194 -3.31683771 0.33845283 0 0 Z " fill="#F1C05C" transform="translate(170.0625,125.6875)"/>
<path d="M0 0 C1.15822266 -0.03738281 2.31644531 -0.07476562 3.50976562 -0.11328125 C4.61900391 -0.12488281 5.72824219 -0.13648437 6.87109375 -0.1484375 C7.89001709 -0.16825684 8.90894043 -0.18807617 9.95874023 -0.20849609 C12.5625 0.375 12.5625 0.375 14.46899414 2.73193359 C15.5625 5.375 15.5625 5.375 14.75 8.1875 C14.358125 8.909375 13.96625 9.63125 13.5625 10.375 C12.9025 10.375 12.2425 10.375 11.5625 10.375 C12.2225 8.065 12.8825 5.755 13.5625 3.375 C12.9025 3.375 12.2425 3.375 11.5625 3.375 C11.5625 2.715 11.5625 2.055 11.5625 1.375 C7.95740895 1.4557876 4.35402079 1.56863684 0.75 1.6875 C-0.27416016 1.71005859 -1.29832031 1.73261719 -2.35351562 1.75585938 C-3.82788086 1.8090332 -3.82788086 1.8090332 -5.33203125 1.86328125 C-6.23800049 1.88946533 -7.14396973 1.91564941 -8.07739258 1.94262695 C-10.8148485 2.44413046 -11.71987607 3.2397772 -13.4375 5.375 C-14.0975 5.045 -14.7575 4.715 -15.4375 4.375 C-15.1075 3.385 -14.7775 2.395 -14.4375 1.375 C-10.19370557 -0.74689721 -4.66281745 0.05689517 0 0 Z " fill="#B377E8" transform="translate(41.4375,115.625)"/>
<path d="M0 0 C3.05115745 -0.28784504 5.95827494 -0.4299258 9 0 C11.1875 2.1875 11.1875 2.1875 12 5 C11.1875 7.8125 11.1875 7.8125 10 10 C9.34 10 8.68 10 8 10 C8.66 7.69 9.32 5.38 10 3 C9.34 3 8.68 3 8 3 C8 2.34 8 1.68 8 1 C5.36 1 2.72 1 0 1 C0 0.67 0 0.34 0 0 Z " fill="#AA70E0" transform="translate(45,116)"/>
<path d="M0 0 C0.66 0 1.32 0 2 0 C0.49770909 3.82401322 -1.8011591 5.5208983 -5 8 C-5.99 9.485 -5.99 9.485 -7 11 C-7.66 10.67 -8.32 10.34 -9 10 C-7.5484451 8.32742645 -6.08855591 6.66208242 -4.625 5 C-3.81289062 4.071875 -3.00078125 3.14375 -2.1640625 2.1875 C-1.44992188 1.465625 -0.73578125 0.74375 0 0 Z " fill="#F7D671" transform="translate(105,93)"/>
<path d="M0 0 C0 0.99 0 1.98 0 3 C-0.99 2.67 -1.98 2.34 -3 2 C-5.36522558 2.92203709 -7.70401807 3.91698965 -10 5 C-9 2 -9 2 -7.25 0.8125 C-4.70039426 -0.10819096 -2.69076919 -0.14948718 0 0 Z " fill="#F0C772" transform="translate(90,139)"/>
<path d="M0 0 C0.99 0.33 1.98 0.66 3 1 C3.33 3.31 3.66 5.62 4 8 C3.34 8 2.68 8 2 8 C2 6.35 2 4.7 2 3 C1.34 3 0.68 3 0 3 C0 2.01 0 1.02 0 0 Z " fill="#EFC681" transform="translate(84,105)"/>
</svg>
